<?xml version="1.0" encoding="utf-8"?>
<!-- Generator: Adobe Illustrator 25.3.1, SVG Export Plug-In . SVG Version: 6.00 Build 0)  -->
<svg version="1.1" id="Layer_1" xmlns="http://www.w3.org/2000/svg" xmlns:xlink="http://www.w3.org/1999/xlink" x="0px" y="0px"
	 viewBox="0 0 105 105" style="enable-background:new 0 0 105 105;" xml:space="preserve">
<style type="text/css">
	.st0{opacity:0.85;}
	.st1{opacity:0.7;}
	.st2{opacity:0.55;}
	.st3{opacity:0.4;}
	.st4{opacity:0.25;}
</style>
<g>
	<rect y="90.39" width="15" height="15"/>
	<rect y="75.39" width="15" height="15"/>
	<rect x="15" y="75.39" width="15" height="15"/>
	<rect x="15" y="90.39" width="15" height="15"/>
	<polygon class="st0" points="30,60.39 15,60.39 0,60.39 0,75.39 15,75.39 30,75.39 30,90.39 30,105.39 45,105.39 45,90.39 
		45,75.39 45,60.39 	"/>
	<polygon class="st1" points="45,45.39 30,45.39 15,45.39 0,45.39 0,60.39 15,60.39 30,60.39 45,60.39 45,75.39 45,90.39 45,105.39 
		60,105.39 60,90.39 60,75.39 60,60.39 60,45.39 	"/>
	<polygon class="st2" points="60,30.39 45,30.39 30,30.39 15,30.39 0,30.39 0,45.39 15,45.39 30,45.39 45,45.39 60,45.39 60,60.39 
		60,75.39 60,90.39 60,105.39 75,105.39 75,90.39 75,75.39 75,60.39 75,45.39 75,30.39 	"/>
	<polygon class="st3" points="75,15.39 60,15.39 45,15.39 30,15.39 15,15.39 0,15.39 0,30.39 15,30.39 30,30.39 45,30.39 60,30.39 
		75,30.39 75,45.39 75,60.39 75,75.39 75,90.39 75,105.39 90,105.39 90,90.39 90,75.39 90,60.39 90,45.39 90,30.39 90,15.39 	"/>
	<polygon class="st4" points="90,0.39 75,0.39 60,0.39 45,0.39 30,0.39 15,0.39 0,0.39 0,15.39 15,15.39 30,15.39 45,15.39 
		60,15.39 75,15.39 90,15.39 90,30.39 90,45.39 90,60.39 90,75.39 105,75.39 105,60.39 105,45.39 105,30.39 105,15.39 105,0.39 	"/>
</g>
</svg>
