<?xml version="1.0" encoding="utf-8"?>
<!-- Generator: Adobe Illustrator 25.3.1, SVG Export Plug-In . SVG Version: 6.00 Build 0)  -->
<svg version="1.1" id="Layer_1" xmlns="http://www.w3.org/2000/svg" xmlns:xlink="http://www.w3.org/1999/xlink" x="0px" y="0px"
	 viewBox="0 0 105 105" style="enable-background:new 0 0 105 105;" xml:space="preserve">
<style type="text/css">
	.st0{fill:#FFFFFF;}
	.st1{opacity:0.85;fill:#FFFFFF;}
	.st2{opacity:0.7;fill:#FFFFFF;}
	.st3{opacity:0.55;fill:#FFFFFF;}
	.st4{opacity:0.4;fill:#FFFFFF;}
	.st5{opacity:0.25;fill:#FFFFFF;}
</style>
<g>
	<rect y="90" class="st0" width="15" height="15"/>
	<rect y="75" class="st0" width="15" height="15"/>
	<rect x="15" y="75" class="st0" width="15" height="15"/>
	<rect x="15" y="90" class="st0" width="15" height="15"/>
	<polygon class="st1" points="30,60 15,60 0,60 0,75 15,75 30,75 30,90 30,105 45,105 45,90 45,75 45,60 	"/>
	<polygon class="st2" points="45,45 30,45 15,45 0,45 0,60 15,60 30,60 45,60 45,75 45,90 45,105 60,105 60,90 60,75 60,60 60,45 	
		"/>
	<polygon class="st3" points="60,30 45,30 30,30 15,30 0,30 0,45 15,45 30,45 45,45 60,45 60,60 60,75 60,90 60,105 75,105 75,90 
		75,75 75,60 75,45 75,30 	"/>
	<polygon class="st4" points="75,15 60,15 45,15 30,15 15,15 0,15 0,30 15,30 30,30 45,30 60,30 75,30 75,45 75,60 75,75 75,90 
		75,105 90,105 90,90 90,75 90,60 90,45 90,30 90,15 	"/>
	<polygon class="st5" points="90,0 75,0 60,0 45,0 30,0 15,0 0,0 0,15 15,15 30,15 45,15 60,15 75,15 90,15 90,30 90,45 90,60 
		90,75 105,75 105,60 105,45 105,30 105,15 105,0 	"/>
</g>
</svg>
