<?xml version="1.0" encoding="utf-8"?>
<!-- Generator: Adobe Illustrator 25.3.1, SVG Export Plug-In . SVG Version: 6.00 Build 0)  -->
<svg version="1.1" id="Layer_1" xmlns="http://www.w3.org/2000/svg" xmlns:xlink="http://www.w3.org/1999/xlink" x="0px" y="0px"
	 viewBox="0 0 105 105" style="enable-background:new 0 0 105 105;" xml:space="preserve">
<style type="text/css">
	.st0{opacity:0.85;fill:#FFFFFF;}
	.st1{opacity:0.7;fill:#FFFFFF;}
	.st2{opacity:0.55;fill:#FFFFFF;}
	.st3{opacity:0.4;fill:#FFFFFF;}
	.st4{opacity:0.1;fill:#FFFFFF;}
	.st5{opacity:0.25;fill:#FFFFFF;}
	.st6{fill:#FFFFFF;}
</style>
<g>
	<rect x="15" y="0" class="st0" width="15" height="105"/>
	<rect x="30" y="0" class="st1" width="15" height="105"/>
	<rect x="45" y="0" class="st2" width="15" height="105"/>
	<rect x="60" y="0" class="st3" width="15" height="105"/>
	<rect x="90" y="0" class="st4" width="15" height="105"/>
	<rect x="75" y="0" class="st5" width="15" height="105"/>
	<rect x="90" y="90" class="st6" width="15" height="15"/>
	<polygon class="st6" points="0,0 0,15 0,30 0,45 0,60 0,75 0,90 0,105 15,105 15,90 15,75 15,60 15,45 15,30 15,15 15,0 	"/>
</g>
</svg>
