<?xml version="1.0" encoding="utf-8"?>
<!-- Generator: Adobe Illustrator 25.3.1, SVG Export Plug-In . SVG Version: 6.00 Build 0)  -->
<svg version="1.1" id="Layer_1" xmlns="http://www.w3.org/2000/svg" xmlns:xlink="http://www.w3.org/1999/xlink" x="0px" y="0px"
	 viewBox="0 0 105 105" style="enable-background:new 0 0 105 105;" xml:space="preserve">
<style type="text/css">
	.st0{fill:#FFFFFF;}
	.st1{opacity:0.2;fill:#FFFFFF;}
	.st2{opacity:0.4;fill:#FFFFFF;}
	.st3{opacity:0.05;fill:#FFFFFF;}
	.st4{opacity:0.1;fill:#FFFFFF;}
	.st5{opacity:0.6;fill:#FFFFFF;}
	.st6{opacity:0.8;fill:#FFFFFF;}
</style>
<g>
	<rect class="st0" width="15" height="15"/>
	<rect x="30" class="st1" width="15" height="15"/>
	<rect x="15" class="st0" width="15" height="15"/>
	<rect x="45" class="st2" width="15" height="15"/>
	<rect x="60" class="st1" width="15" height="15"/>
	<rect x="90" class="st3" width="15" height="15"/>
	<rect x="90" y="15" class="st4" width="15" height="15"/>
	<rect x="75" class="st4" width="15" height="15"/>
	<rect x="15" y="15" class="st1" width="15" height="15"/>
	<rect x="30" y="15" class="st2" width="15" height="15"/>
	<rect x="45" y="15" class="st5" width="15" height="15"/>
	<rect x="60" y="15" class="st2" width="15" height="15"/>
	<rect x="75" y="15" class="st1" width="15" height="15"/>
	<rect y="30" class="st1" width="15" height="15"/>
	<rect y="15" class="st0" width="15" height="15"/>
	<rect x="15" y="30" class="st2" width="15" height="15"/>
	<rect x="30" y="30" class="st5" width="15" height="15"/>
	<rect x="45" y="30" class="st6" width="15" height="15"/>
	<rect x="60" y="30" class="st5" width="15" height="15"/>
	<rect x="75" y="30" class="st2" width="15" height="15"/>
	<rect x="90" y="30" class="st1" width="15" height="15"/>
	<rect y="45" class="st2" width="15" height="15"/>
	<rect x="15" y="45" class="st5" width="15" height="15"/>
	<rect x="30" y="45" class="st6" width="15" height="15"/>
	<rect x="45" y="45" class="st0" width="15" height="15"/>
	<rect x="60" y="45" class="st6" width="15" height="15"/>
	<rect x="75" y="45" class="st5" width="15" height="15"/>
	<rect x="90" y="45" class="st2" width="15" height="15"/>
	<rect y="60" class="st1" width="15" height="15"/>
	<rect x="15" y="60" class="st2" width="15" height="15"/>
	<rect x="30" y="60" class="st5" width="15" height="15"/>
	<rect x="45" y="60" class="st6" width="15" height="15"/>
	<rect x="60" y="60" class="st5" width="15" height="15"/>
	<rect x="75" y="60" class="st2" width="15" height="15"/>
	<rect x="90" y="60" class="st1" width="15" height="15"/>
	<rect x="15" y="75" class="st1" width="15" height="15"/>
	<rect x="30" y="75" class="st2" width="15" height="15"/>
	<rect x="45" y="75" class="st5" width="15" height="15"/>
	<rect x="60" y="75" class="st2" width="15" height="15"/>
	<rect x="75" y="75" class="st1" width="15" height="15"/>
	<rect y="90" class="st3" width="15" height="15"/>
	<rect x="15" y="90" class="st4" width="15" height="15"/>
	<rect y="75" class="st4" width="15" height="15"/>
	<rect x="30" y="90" class="st1" width="15" height="15"/>
	<rect x="45" y="90" class="st2" width="15" height="15"/>
	<rect x="60" y="90" class="st1" width="15" height="15"/>
	<rect x="90" y="90" class="st3" width="15" height="15"/>
	<rect x="75" y="90" class="st4" width="15" height="15"/>
	<rect x="90" y="75" class="st4" width="15" height="15"/>
</g>
</svg>
