<svg width="353" height="104" viewBox="0 0 353 104" fill="none" xmlns="http://www.w3.org/2000/svg">
<path opacity="0.8" d="M20.7141 0H0V20.7143H20.7141V0Z" fill="white"/>
<path opacity="0.2" d="M165.714 0H145V20.7143H165.714V0Z" fill="white"/>
<path d="M310.714 0H290V20.7143H310.714V0Z" fill="white"/>
<path d="M62.1419 0H41.4277V20.7143H62.1419V0Z" fill="white"/>
<path d="M41.428 0H20.7139V20.7143H41.428V0Z" fill="white"/>
<path d="M186.428 0H165.714V20.7143H186.428V0Z" fill="white"/>
<path d="M331.428 0H310.714V20.7143H331.428V0Z" fill="white"/>
<path opacity="0.4" d="M82.8557 0H62.1416V20.7143H82.8557V0Z" fill="white"/>
<path d="M227.856 0H207.142V20.7143H227.856V0Z" fill="white"/>
<path d="M103.573 0H82.8584V20.7143H103.573V0Z" fill="white"/>
<path opacity="0.2" d="M248.573 0H227.858V20.7143H248.573V0Z" fill="white"/>
<path d="M145 0H124.286V20.7143H145V0Z" fill="white"/>
<path opacity="0.8" d="M290 0H269.286V20.7143H290V0Z" fill="white"/>
<path d="M145 20.7143H124.286V41.4286H145V20.7143Z" fill="white"/>
<path opacity="0.6" d="M269.284 0H248.57V20.7143H269.284V0Z" fill="white"/>
<path d="M41.428 20.7143H20.7139V41.4286H41.428V20.7143Z" fill="white"/>
<path d="M186.428 20.7143H165.714V41.4286H186.428V20.7143Z" fill="white"/>
<path opacity="0.4" d="M331.428 20.7143H310.714V41.4286H331.428V20.7143Z" fill="white"/>
<path opacity="0.8" d="M62.1419 20.7143H41.4277V41.4286H62.1419V20.7143Z" fill="white"/>
<path opacity="0.4" d="M207.142 20.7143H186.428V41.4286H207.142V20.7143Z" fill="white"/>
<path opacity="0.6" d="M352.142 20.7143H331.428V41.4286H352.142V20.7143Z" fill="white"/>
<path d="M82.8557 20.7143H62.1416V41.4286H82.8557V20.7143Z" fill="white"/>
<path opacity="0.8" d="M227.856 20.7143H207.142V41.4286H227.856V20.7143Z" fill="white"/>
<path opacity="0.6" d="M103.573 20.7143H82.8584V41.4286H103.573V20.7143Z" fill="white"/>
<path d="M248.573 20.7143H227.858V41.4286H248.573V20.7143Z" fill="white"/>
<path opacity="0.6" d="M124.284 20.7143H103.57V41.4286H124.284V20.7143Z" fill="white"/>
<path d="M269.284 20.7143H248.57V41.4286H269.284V20.7143Z" fill="white"/>
<path d="M20.7141 41.4286H0V62.1429H20.7141V41.4286Z" fill="white"/>
<path d="M165.714 41.4286H145V62.1429H165.714V41.4286Z" fill="white"/>
<path opacity="0.2" d="M20.7141 20.7143H0V41.4286H20.7141V20.7143Z" fill="white"/>
<path opacity="0.8" d="M165.714 20.7143H145V41.4286H165.714V20.7143Z" fill="white"/>
<path d="M310.714 20.7143H290V41.4286H310.714V20.7143Z" fill="white"/>
<path opacity="0.6" d="M186.428 41.4286H165.714V62.1429H186.428V41.4286Z" fill="white"/>
<path d="M331.428 41.4286H310.714V62.1429H331.428V41.4286Z" fill="white"/>
<path d="M207.142 41.4286H186.428V62.1429H207.142V41.4286Z" fill="white"/>
<path d="M82.8557 41.4286H62.1416V62.1429H82.8557V41.4286Z" fill="white"/>
<path d="M227.856 41.4286H207.142V62.1429H227.856V41.4286Z" fill="white"/>
<path d="M103.573 41.4286H82.8584V62.1429H103.573V41.4286Z" fill="white"/>
<path d="M248.573 41.4286H227.858V62.1429H248.573V41.4286Z" fill="white"/>
<path d="M124.284 41.4286H103.57V62.1429H124.284V41.4286Z" fill="white"/>
<path opacity="0.4" d="M269.284 41.4286H248.57V62.1429H269.284V41.4286Z" fill="white"/>
<path opacity="0.2" d="M145 41.4286H124.286V62.1429H145V41.4286Z" fill="white"/>
<path d="M290 41.4286H269.286V62.1429H290V41.4286Z" fill="white"/>
<path opacity="0.6" d="M20.7141 62.1429H0V82.8571H20.7141V62.1429Z" fill="white"/>
<path d="M310.714 62.1429H290V82.8571H310.714V62.1429Z" fill="white"/>
<path d="M41.428 62.1429H20.7139V82.8571H41.428V62.1429Z" fill="white"/>
<path d="M186.428 62.1429H165.714V82.8571H186.428V62.1429Z" fill="white"/>
<path opacity="0.8" d="M331.428 62.1429H310.714V82.8571H331.428V62.1429Z" fill="white"/>
<path d="M62.1419 62.1429H41.4277V82.8571H62.1419V62.1429Z" fill="white"/>
<path d="M207.142 62.1429H186.428V82.8571H207.142V62.1429Z" fill="white"/>
<path d="M352.142 62.1429H331.428V82.8571H352.142V62.1429Z" fill="white"/>
<path opacity="0.2" d="M82.8557 62.1429H62.1416V82.8571H82.8557V62.1429Z" fill="white"/>
<path opacity="0.8" d="M227.856 62.1429H207.142V82.8571H227.856V62.1429Z" fill="white"/>
<path opacity="0.6" d="M124.284 62.1429H103.57V82.8571H124.284V62.1429Z" fill="white"/>
<path d="M269.284 62.1429H248.57V82.8571H269.284V62.1429Z" fill="white"/>
<path d="M145 62.1429H124.286V82.8571H145V62.1429Z" fill="white"/>
<path opacity="0.2" d="M290 62.1429H269.286V82.8571H290V62.1429Z" fill="white"/>
<path d="M20.7141 82.8571H0V103.571H20.7141V82.8571Z" fill="white"/>
<path d="M165.714 82.8571H145V103.571H165.714V82.8571Z" fill="white"/>
<path d="M310.714 82.8571H290V103.571H310.714V82.8571Z" fill="white"/>
<path opacity="0.4" d="M186.428 82.8571H165.714V103.571H186.428V82.8571Z" fill="white"/>
<path opacity="0.2" d="M331.428 82.8571H310.714V103.571H331.428V82.8571Z" fill="white"/>
<path opacity="0.4" d="M62.1419 82.8571H41.4277V103.571H62.1419V82.8571Z" fill="white"/>
<path opacity="0.6" d="M207.142 82.8571H186.428V103.571H207.142V82.8571Z" fill="white"/>
<path opacity="0.4" d="M352.142 82.8571H331.428V103.571H352.142V82.8571Z" fill="white"/>
<path opacity="0.2" d="M103.573 82.8571H82.8584V103.571H103.573V82.8571Z" fill="white"/>
<path d="M248.573 82.8571H227.858V103.571H248.573V82.8571Z" fill="white"/>
<path d="M124.284 82.8571H103.57V103.571H124.284V82.8571Z" fill="white"/>
<path d="M269.284 82.8571H248.57V103.571H269.284V82.8571Z" fill="white"/>
<path opacity="0.8" d="M145 82.8571H124.286V103.571H145V82.8571Z" fill="white"/>
</svg>
