<svg width="357" height="147" viewBox="0 0 357 147" fill="none" xmlns="http://www.w3.org/2000/svg">
<path d="M189 63H168V84H189V63Z" fill="white"/>
<path d="M84 63H63V84H84V63Z" fill="white"/>
<path d="M105 42H84V63H105V42Z" fill="white"/>
<path d="M126 21H105V42H126V21Z" fill="white"/>
<path d="M147 0H126V21H147V0Z" fill="white"/>
<path d="M42 0H0V42H21V21H42V0Z" fill="white"/>
<path d="M315 147L357 147L357 105L336 105L336 126L315 126L315 147Z" fill="white"/>
<path d="M-1.83588e-06 105L0 147L42 147L42 126L21 126L21 105L-1.83588e-06 105Z" fill="white"/>
<path d="M357 42L357 0L315 -1.83588e-06L315 21L336 21L336 42L357 42Z" fill="white"/>
<path d="M231 0H210V21H231V0Z" fill="white"/>
<path d="M252 21H231V42H252V21Z" fill="white"/>
<path d="M273 42H252V63H273V42Z" fill="white"/>
<path d="M273 84H252V105H273V84Z" fill="white"/>
<path d="M294 63H273V84H294V63Z" fill="white"/>
<path d="M252 105H231V126H252V105Z" fill="white"/>
<path d="M231 126H210V147H231V126Z" fill="white"/>
<path d="M147 126H126V147H147V126Z" fill="white"/>
<path d="M126 105H105V126H126V105Z" fill="white"/>
<path d="M105 84H84V105H105V84Z" fill="white"/>
<path d="M168 63H147V84H168V63Z" fill="#CCCCCC"/>
<path d="M189 42H168V63H189V42Z" fill="#CCCCCC"/>
<path d="M126 0H105V21H126V0Z" fill="#CCCCCC"/>
<path d="M231 147L252 147L252 126L231 126L231 147Z" fill="#CCCCCC"/>
<path d="M252 147L273 147L273 126L252 126L252 147Z" fill="#999999"/>
<path d="M105 3.67176e-06L84 0L84 21L105 21L105 3.67176e-06Z" fill="#999999"/>
<path d="M84 3.67176e-06L63 0L63 21L84 21L84 3.67176e-06Z" fill="#666666"/>
<path d="M273 147L294 147L294 126L273 126L273 147Z" fill="#666666"/>
<path d="M105 21H84V42H105V21Z" fill="#CCCCCC"/>
<path d="M252 126L273 126L273 105L252 105L252 126Z" fill="#CCCCCC"/>
<path d="M273 126L294 126L294 105L273 105L273 126Z" fill="#999999"/>
<path d="M84 21L63 21L63 42L84 42L84 21Z" fill="#999999"/>
<path d="M63 21L42 21L42 42L63 42L63 21Z" fill="#666666"/>
<path d="M294 126L315 126L315 105L294 105L294 126Z" fill="#666666"/>
<path d="M84 42H63V63H84V42Z" fill="#CCCCCC"/>
<path d="M273 105L294 105L294 84L273 84L273 105Z" fill="#CCCCCC"/>
<path d="M294 105L315 105L315 84L294 84L294 105Z" fill="#999999"/>
<path d="M63 42L42 42L42 63L63 63L63 42Z" fill="#999999"/>
<path d="M42 42L21 42L21 63L42 63L42 42Z" fill="#666666"/>
<path d="M315 105L336 105L336 84L315 84L315 105Z" fill="#666666"/>
<path d="M63 63H42V84H63V63Z" fill="#CCCCCC"/>
<path d="M294 84L315 84L315 63L294 63L294 84Z" fill="#CCCCCC"/>
<path d="M315 84L336 84L336 63L315 63L315 84Z" fill="#999999"/>
<path d="M42 63L21 63L21 84L42 84L42 63Z" fill="#999999"/>
<path d="M21 63L0 63L-3.67176e-06 84L21 84L21 63Z" fill="#666666"/>
<path d="M336 84L357 84L357 63L336 63L336 84Z" fill="#666666"/>
<path d="M84 84H63V105H84V84Z" fill="#CCCCCC"/>
<path d="M273 63L294 63L294 42L273 42L273 63Z" fill="#CCCCCC"/>
<path d="M294 63L315 63L315 42L294 42L294 63Z" fill="#999999"/>
<path d="M63 84L42 84L42 105L63 105L63 84Z" fill="#999999"/>
<path d="M42 84L21 84L21 105L42 105L42 84Z" fill="#666666"/>
<path d="M315 63L336 63L336 42L315 42L315 63Z" fill="#666666"/>
<path d="M105 105H84V126H105V105Z" fill="#CCCCCC"/>
<path d="M252 42L273 42L273 21L252 21L252 42Z" fill="#CCCCCC"/>
<path d="M273 42L294 42L294 21L273 21L273 42Z" fill="#999999"/>
<path d="M84 105L63 105L63 126L84 126L84 105Z" fill="#999999"/>
<path d="M63 105L42 105L42 126L63 126L63 105Z" fill="#666666"/>
<path d="M294 42L315 42L315 21L294 21L294 42Z" fill="#666666"/>
<path d="M126 126H105V147H126V126Z" fill="#CCCCCC"/>
<path d="M231 21L252 21L252 0L231 -1.83588e-06L231 21Z" fill="#CCCCCC"/>
<path d="M252 21L273 21L273 0L252 -1.83588e-06L252 21Z" fill="#999999"/>
<path d="M105 126L84 126L84 147L105 147L105 126Z" fill="#999999"/>
<path d="M84 126L63 126L63 147L84 147L84 126Z" fill="#666666"/>
<path d="M273 21L294 21L294 0L273 -4.44664e-06L273 21Z" fill="#666666"/>
<path d="M210 63H189V84H210V63Z" fill="#CCCCCC"/>
<path d="M189 84H168V105H189V84Z" fill="#CCCCCC"/>
<path d="M168 84H147V105H168V84Z" fill="#999999"/>
<path d="M189 105H168V126H189V105Z" fill="#999999"/>
<path d="M210 84H189V105H210V84Z" fill="#999999"/>
<path d="M210 42H189V63H210V42Z" fill="#999999"/>
<path d="M168 42H147V63H168V42Z" fill="#999999"/>
<path d="M189 21H168V42H189V21Z" fill="#999999"/>
<path d="M147 63H126V84H147V63Z" fill="#999999"/>
<path d="M231 63H210V84H231V63Z" fill="#999999"/>
<path d="M147 84H126V105H147V84Z" fill="#666666"/>
<path d="M168 105H147V126H168V105Z" fill="#666666"/>
<path d="M189 126H168V147H189V126Z" fill="#666666"/>
<path d="M210 105H189V126H210V105Z" fill="#666666"/>
<path d="M231 84H210V105H231V84Z" fill="#666666"/>
<path d="M252 63H231V84H252V63Z" fill="#666666"/>
<path d="M231 42H210V63H231V42Z" fill="#666666"/>
<path d="M210 21H189V42H210V21Z" fill="#666666"/>
<path d="M189 0H168V21H189V0Z" fill="#666666"/>
<path d="M168 21H147V42H168V21Z" fill="#666666"/>
<path d="M147 42H126V63H147V42Z" fill="#666666"/>
<path d="M126 63H105V84H126V63Z" fill="#666666"/>
<path d="M126 84H105V105H126V84Z" fill="#333333"/>
<path d="M147 105H126V126H147V105Z" fill="#333333"/>
<path d="M168 126H147V147H168V126Z" fill="#333333"/>
<path d="M210 126H189V147H210V126Z" fill="#333333"/>
<path d="M231 105H210V126H231V105Z" fill="#333333"/>
<path d="M252 84H231V105H252V84Z" fill="#333333"/>
<path d="M273 63H252V84H273V63Z" fill="#333333"/>
<path d="M252 42H231V63H252V42Z" fill="#333333"/>
<path d="M231 21H210V42H231V21Z" fill="#333333"/>
<path d="M210 0H189V21H210V0Z" fill="#333333"/>
<path d="M168 0H147V21H168V0Z" fill="#333333"/>
<path d="M147 21H126V42H147V21Z" fill="#333333"/>
<path d="M126 42H105V63H126V42Z" fill="#333333"/>
<path d="M105 63H84V84H105V63Z" fill="#333333"/>
<path d="M21 42H0V63H21V42Z" fill="#333333"/>
<path d="M336 105L357 105L357 84L336 84L336 105Z" fill="#333333"/>
<path d="M42 126L42 147L63 147L63 126L42 126Z" fill="#333333"/>
<path d="M315 21L315 0L294 -9.17939e-07L294 21L315 21Z" fill="#333333"/>
<path d="M42 21H21V42H42V21Z" fill="#333333"/>
<path d="M315 126L336 126L336 105L315 105L315 126Z" fill="#333333"/>
<path d="M21 105L21 126L42 126L42 105L21 105Z" fill="#333333"/>
<path d="M336 42L336 21L315 21L315 42L336 42Z" fill="#333333"/>
<path d="M63 0H42V21H63V0Z" fill="#333333"/>
<path d="M294 147L315 147L315 126L294 126L294 147Z" fill="#333333"/>
<path d="M-9.17939e-07 84L0 105L21 105L21 84L-9.17939e-07 84Z" fill="#333333"/>
<path d="M357 63L357 42L336 42L336 63L357 63Z" fill="#333333"/>
</svg>
