<svg width="357" height="147" viewBox="0 0 357 147" fill="none" xmlns="http://www.w3.org/2000/svg">
<path d="M189 63H168V84H189V63Z" fill="black"/>
<path d="M168 63H147V84H168V63Z" fill="#2E2E2E"/>
<path d="M189 42H168V63H189V42Z" fill="#2E2E2E"/>
<path d="M210 63H189V84H210V63Z" fill="#2E2E2E"/>
<path d="M189 84H168V105H189V84Z" fill="#2E2E2E"/>
<path d="M168 84H147V105H168V84Z" fill="#5C5C5C"/>
<path d="M189 105H168V126H189V105Z" fill="#5C5C5C"/>
<path d="M210 84H189V105H210V84Z" fill="#5C5C5C"/>
<path d="M210 42H189V63H210V42Z" fill="#5C5C5C"/>
<path d="M168 42H147V63H168V42Z" fill="#5C5C5C"/>
<path d="M189 21H168V42H189V21Z" fill="#5C5C5C"/>
<path d="M168 105H147V126H168V105Z" fill="#898989"/>
<path d="M210 21H189V42H210V21Z" fill="#898989"/>
<path d="M21 0H0V147H105V126H21V0Z" fill="black"/>
<path d="M336 147L357 147L357 0L252 -9.17939e-06L252 21L336 21L336 147Z" fill="black"/>
<path d="M126 42H105V147H126V42Z" fill="#CECECE"/>
<path d="M231 105L252 105L252 0L231 -1.83588e-06L231 105Z" fill="#CECECE"/>
<path d="M42 0H21V126H105V105H42V0Z" fill="#2E2E2E"/>
<path d="M315 147L336 147L336 21L252 21L252 42L315 42L315 147Z" fill="#2E2E2E"/>
<path d="M147 42H126V147H168V126H147V42Z" fill="#B7B7B7"/>
<path d="M210 105L231 105L231 0L189 -3.67176e-06L189 21L210 21L210 105Z" fill="#B7B7B7"/>
<path d="M147 21L147 0L42 -4.5897e-06L42 21L147 21Z" fill="#5C5C5C"/>
<path d="M210 126L210 147L315 147L315 126L210 126Z" fill="#5C5C5C"/>
<path d="M42 42L168 42L168 21L189 21L189 0L147 -1.83588e-06L147 21L42 21L42 42Z" fill="#898989"/>
<path d="M315 105L189 105L189 126L168 126L168 147L210 147L210 126L315 126L315 105Z" fill="#898989"/>
</svg>
