<svg width="357" height="147" viewBox="0 0 357 147" fill="none" xmlns="http://www.w3.org/2000/svg">
<path d="M42 126H21V147H42V126Z" fill="white"/>
<path d="M126 126H105V147H126V126Z" fill="white"/>
<path d="M210 126H189V147H210V126Z" fill="white"/>
<path d="M294 126H273V147H294V126Z" fill="white"/>
<path d="M84 0H63V21H84V0Z" fill="white"/>
<path d="M168 0H147V21H168V0Z" fill="white"/>
<path d="M252 0H231V21H252V0Z" fill="white"/>
<path d="M336 0H315V21H336V0Z" fill="white"/>
<path d="M21 0H0V147H21V0Z" fill="white"/>
<path d="M63 0H42V147H63V0Z" fill="white"/>
<path d="M147 0H126V147H147V0Z" fill="white"/>
<path d="M231 0H210V147H231V0Z" fill="white"/>
<path d="M315 0H294V147H315V0Z" fill="white"/>
<path d="M105 0H84V147H105V0Z" fill="white"/>
<path d="M189 0H168V147H189V0Z" fill="white"/>
<path d="M273 0H252V147H273V0Z" fill="white"/>
<path d="M357 0H336V147H357V0Z" fill="white"/>
<path d="M21 126L42 126L42 105L21 105L21 126Z" fill="#CCCCCC"/>
<path d="M105 126L126 126L126 105L105 105L105 126Z" fill="#CCCCCC"/>
<path d="M189 126L210 126L210 105L189 105L189 126Z" fill="#CCCCCC"/>
<path d="M273 126L294 126L294 105L273 105L273 126Z" fill="#CCCCCC"/>
<path d="M336 21L315 21L315 42L336 42L336 21Z" fill="#CCCCCC"/>
<path d="M252 21L231 21L231 42L252 42L252 21Z" fill="#CCCCCC"/>
<path d="M168 21L147 21L147 42L168 42L168 21Z" fill="#CCCCCC"/>
<path d="M84 21L63 21L63 42L84 42L84 21Z" fill="#CCCCCC"/>
<path d="M21 105L42 105L42 84L21 84L21 105Z" fill="#999999"/>
<path d="M105 105L126 105L126 84L105 84L105 105Z" fill="#999999"/>
<path d="M189 105L210 105L210 84L189 84L189 105Z" fill="#999999"/>
<path d="M273 105L294 105L294 84L273 84L273 105Z" fill="#999999"/>
<path d="M336 42L315 42L315 63L336 63L336 42Z" fill="#999999"/>
<path d="M252 42L231 42L231 63L252 63L252 42Z" fill="#999999"/>
<path d="M168 42L147 42L147 63L168 63L168 42Z" fill="#999999"/>
<path d="M84 42L63 42L63 63L84 63L84 42Z" fill="#999999"/>
<path d="M21 84L42 84L42 63L21 63L21 84Z" fill="#666666"/>
<path d="M105 84L126 84L126 63L105 63L105 84Z" fill="#666666"/>
<path d="M189 84L210 84L210 63L189 63L189 84Z" fill="#666666"/>
<path d="M273 84L294 84L294 63L273 63L273 84Z" fill="#666666"/>
<path d="M336 63L315 63L315 84L336 84L336 63Z" fill="#666666"/>
<path d="M252 63L231 63L231 84L252 84L252 63Z" fill="#666666"/>
<path d="M168 63L147 63L147 84L168 84L168 63Z" fill="#666666"/>
<path d="M84 63L63 63L63 84L84 84L84 63Z" fill="#666666"/>
<path d="M21 63L42 63L42 42L21 42L21 63Z" fill="#333333"/>
<path d="M105 63L126 63L126 42L105 42L105 63Z" fill="#333333"/>
<path d="M189 63L210 63L210 42L189 42L189 63Z" fill="#333333"/>
<path d="M273 63L294 63L294 42L273 42L273 63Z" fill="#333333"/>
<path d="M336 84L315 84L315 105L336 105L336 84Z" fill="#333333"/>
<path d="M252 84L231 84L231 105L252 105L252 84Z" fill="#333333"/>
<path d="M168 84L147 84L147 105L168 105L168 84Z" fill="#333333"/>
<path d="M84 84L63 84L63 105L84 105L84 84Z" fill="#333333"/>
<path d="M21 42L42 42L42 21L21 21L21 42Z" fill="#191919"/>
<path d="M105 42L126 42L126 21L105 21L105 42Z" fill="#191919"/>
<path d="M189 42L210 42L210 21L189 21L189 42Z" fill="#191919"/>
<path d="M273 42L294 42L294 21L273 21L273 42Z" fill="#191919"/>
<path d="M336 105L315 105L315 126L336 126L336 105Z" fill="#191919"/>
<path d="M252 105L231 105L231 126L252 126L252 105Z" fill="#191919"/>
<path d="M168 105L147 105L147 126L168 126L168 105Z" fill="#191919"/>
<path d="M84 105L63 105L63 126L84 126L84 105Z" fill="#191919"/>
<path d="M21 21L42 21L42 0L21 -1.83588e-06L21 21Z" fill="#0D0D0D"/>
<path d="M105 21L126 21L126 0L105 -1.83588e-06L105 21Z" fill="#0D0D0D"/>
<path d="M189 21L210 21L210 0L189 -1.83588e-06L189 21Z" fill="#0D0D0D"/>
<path d="M273 21L294 21L294 0L273 -1.83588e-06L273 21Z" fill="#0D0D0D"/>
<path d="M336 126L315 126L315 147L336 147L336 126Z" fill="#0D0D0D"/>
<path d="M252 126L231 126L231 147L252 147L252 126Z" fill="#0D0D0D"/>
<path d="M168 126L147 126L147 147L168 147L168 126Z" fill="#0D0D0D"/>
<path d="M84 126L63 126L63 147L84 147L84 126Z" fill="#0D0D0D"/>
</svg>
