<svg width="357" height="147" viewBox="0 0 357 147" fill="none" xmlns="http://www.w3.org/2000/svg">
<path d="M252 84L273 84L273 63L252 63L252 84Z" fill="black"/>
<path d="M336 105L357 105L357 84L336 84L336 105Z" fill="black"/>
<path d="M315 126L336 126L336 105L315 105L315 126Z" fill="black"/>
<path d="M294 147L315 147L315 126L294 126L294 147Z" fill="black"/>
<path d="M294 21L315 21L315 0L294 -1.83588e-06L294 21Z" fill="black"/>
<path d="M315 42L336 42L336 21L315 21L315 42Z" fill="black"/>
<path d="M336 63L357 63L357 42L336 42L336 63Z" fill="black"/>
<path d="M273 84L294 84L294 63L273 63L273 84Z" fill="#2E2E2E"/>
<path d="M252 105L273 105L273 84L252 84L252 105Z" fill="#2E2E2E"/>
<path d="M315 147L336 147L336 126L315 126L315 147Z" fill="#2E2E2E"/>
<path d="M336 147L357 147L357 126L336 126L336 147Z" fill="#5C5C5C"/>
<path d="M336 126L357 126L357 105L336 105L336 126Z" fill="#2E2E2E"/>
<path d="M336 42L357 42L357 21L336 21L336 42Z" fill="#2E2E2E"/>
<path d="M315 21L336 21L336 0L315 -1.83588e-06L315 21Z" fill="#2E2E2E"/>
<path d="M336 21L357 21L357 0L336 -5.50764e-06L336 21Z" fill="#5C5C5C"/>
<path d="M252 63L273 63L273 42L252 42L252 63Z" fill="#2E2E2E"/>
<path d="M252 0H0V147H252V0Z" fill="black"/>
<path d="M273 63L294 63L294 42L273 42L273 63Z" fill="#5C5C5C"/>
<path d="M252 42L273 42L273 21L252 21L252 42Z" fill="#5C5C5C"/>
<path d="M273 105L294 105L294 84L273 84L273 105Z" fill="#5C5C5C"/>
<path d="M252 126L273 126L273 105L252 105L252 126Z" fill="#5C5C5C"/>
<path d="M294 84L315 84L315 63L294 63L294 84Z" fill="#5C5C5C"/>
<path d="M294 63L315 63L315 42L294 42L294 63Z" fill="#898989"/>
<path d="M273 42L294 42L294 21L273 21L273 42Z" fill="#898989"/>
<path d="M252 21L273 21L273 0L252 -1.83588e-06L252 21Z" fill="#898989"/>
<path d="M252 147L273 147L273 126L252 126L252 147Z" fill="#898989"/>
<path d="M273 126L294 126L294 105L273 105L273 126Z" fill="#898989"/>
<path d="M294 105L315 105L315 84L294 84L294 105Z" fill="#898989"/>
<path d="M315 84L336 84L336 63L315 63L315 84Z" fill="#898989"/>
<path d="M315 63L336 63L336 42L315 42L315 63Z" fill="#B7B7B7"/>
<path d="M294 42L315 42L315 21L294 21L294 42Z" fill="#B7B7B7"/>
<path d="M273 21L294 21L294 0L273 -1.83588e-06L273 21Z" fill="#B7B7B7"/>
<path d="M273 147L294 147L294 126L273 126L273 147Z" fill="#B7B7B7"/>
<path d="M294 126L315 126L315 105L294 105L294 126Z" fill="#B7B7B7"/>
<path d="M315 105L336 105L336 84L315 84L315 105Z" fill="#B7B7B7"/>
<path d="M336 84L357 84L357 63L336 63L336 84Z" fill="#B7B7B7"/>
</svg>
