<svg width="353" height="104" viewBox="0 0 353 104" fill="none" xmlns="http://www.w3.org/2000/svg">
<path d="M20.7141 0H0V20.7143H20.7141V0Z" fill="white"/>
<path d="M165.714 0H145V20.7143H165.714V0Z" fill="white"/>
<path d="M310.714 0H290V20.7143H310.714V0Z" fill="white"/>
<path d="M62.1419 0H41.4277V20.7143H62.1419V0Z" fill="white"/>
<path d="M207.142 0H186.428V20.7143H207.142V0Z" fill="white"/>
<path d="M352.142 0H331.428V20.7143H352.142V0Z" fill="white"/>
<path d="M41.428 0H20.7139V20.7143H41.428V0Z" fill="white"/>
<path d="M186.428 0H165.714V20.7143H186.428V0Z" fill="white"/>
<path d="M331.428 0H310.714V20.7143H331.428V0Z" fill="white"/>
<path d="M82.8557 0H62.1416V20.7143H82.8557V0Z" fill="white"/>
<path d="M227.856 0H207.142V20.7143H227.856V0Z" fill="white"/>
<path d="M103.573 0H82.8584V20.7143H103.573V0Z" fill="white"/>
<path d="M248.573 0H227.858V20.7143H248.573V0Z" fill="white"/>
<path d="M145 0H124.286V20.7143H145V0Z" fill="white"/>
<path d="M290 0H269.286V20.7143H290V0Z" fill="white"/>
<path d="M124.284 0H103.57V20.7143H124.284V0Z" fill="white"/>
<path d="M269.284 0H248.57V20.7143H269.284V0Z" fill="white"/>
<path d="M352.142 20.7143H331.428V41.4286H352.142V20.7143Z" fill="white"/>
<path d="M20.7141 41.4286H0V62.1429H20.7141V41.4286Z" fill="white"/>
<path d="M20.7141 20.7143H0V41.4286H20.7141V20.7143Z" fill="white"/>
<path d="M352.142 41.4286H331.428V62.1429H352.142V41.4286Z" fill="white"/>
<path d="M20.7141 62.1428H0V82.8571H20.7141V62.1428Z" fill="white"/>
<path d="M352.142 62.1428H331.428V82.8571H352.142V62.1428Z" fill="white"/>
<path d="M20.7141 82.8572H0V103.571H20.7141V82.8572Z" fill="white"/>
<path d="M165.714 82.8572H145V103.571H165.714V82.8572Z" fill="white"/>
<path d="M310.714 82.8572H290V103.571H310.714V82.8572Z" fill="white"/>
<path d="M41.428 82.8572H20.7139V103.571H41.428V82.8572Z" fill="white"/>
<path d="M186.428 82.8572H165.714V103.571H186.428V82.8572Z" fill="white"/>
<path d="M331.428 82.8572H310.714V103.571H331.428V82.8572Z" fill="white"/>
<path d="M62.1419 82.8572H41.4277V103.571H62.1419V82.8572Z" fill="white"/>
<path d="M207.142 82.8572H186.428V103.571H207.142V82.8572Z" fill="white"/>
<path d="M352.142 82.8572H331.428V103.571H352.142V82.8572Z" fill="white"/>
<path d="M82.8557 82.8572H62.1416V103.571H82.8557V82.8572Z" fill="white"/>
<path d="M227.856 82.8572H207.142V103.571H227.856V82.8572Z" fill="white"/>
<path d="M103.573 82.8572H82.8584V103.571H103.573V82.8572Z" fill="white"/>
<path d="M248.573 82.8572H227.858V103.571H248.573V82.8572Z" fill="white"/>
<path d="M124.284 82.8572H103.57V103.571H124.284V82.8572Z" fill="white"/>
<path d="M269.284 82.8572H248.57V103.571H269.284V82.8572Z" fill="white"/>
<path d="M145 82.8572H124.286V103.571H145V82.8572Z" fill="white"/>
<path d="M290 82.8572H269.286V103.571H290V82.8572Z" fill="white"/>
</svg>
