<svg width="357" height="147" viewBox="0 0 357 147" fill="none" xmlns="http://www.w3.org/2000/svg">
<path d="M21 0H0V21H21V0Z" fill="black"/>
<path d="M357 0H336V21H357V0Z" fill="black"/>
<path d="M210 0H189V21H210V0Z" fill="black"/>
<path d="M126 21H105V42H126V21Z" fill="black"/>
<path d="M273 21H252V42H273V21Z" fill="black"/>
<path d="M105 63H84V84H105V63Z" fill="black"/>
<path d="M84 126H63V147H84V126Z" fill="black"/>
<path d="M189 126H168V147H189V126Z" fill="black"/>
<path d="M315 126H294V147H315V126Z" fill="black"/>
<path d="M63 84H42V105H63V84Z" fill="black"/>
<path d="M252 84H231V105H252V84Z" fill="black"/>
<path d="M294 84H273V105H294V84Z" fill="black"/>
<path d="M336 84H315V105H336V84Z" fill="black"/>
<path d="M147 84H126V105H147V84Z" fill="black"/>
<path d="M42 42H21V63H42V42Z" fill="black"/>
<path d="M231 42H210V63H231V42Z" fill="black"/>
<path d="M168 42H147V63H168V42Z" fill="black"/>
<path d="M21 21H0V42H21V21Z" fill="#2E2E2E"/>
<path d="M357 21H336V42H357V21Z" fill="#2E2E2E"/>
<path d="M210 21H189V42H210V21Z" fill="#2E2E2E"/>
<path d="M126 42H105V63H126V42Z" fill="#2E2E2E"/>
<path d="M273 42H252V63H273V42Z" fill="#2E2E2E"/>
<path d="M105 84H84V105H105V84Z" fill="#2E2E2E"/>
<path d="M84 0H63V21H84V0Z" fill="#2E2E2E"/>
<path d="M189 0H168V21H189V0Z" fill="#2E2E2E"/>
<path d="M315 0H294V21H315V0Z" fill="#2E2E2E"/>
<path d="M21 42H0V63H21V42Z" fill="#5C5C5C"/>
<path d="M357 42H336V63H357V42Z" fill="#5C5C5C"/>
<path d="M210 42H189V63H210V42Z" fill="#5C5C5C"/>
<path d="M63 105H42V126H63V105Z" fill="#2E2E2E"/>
<path d="M252 105H231V126H252V105Z" fill="#2E2E2E"/>
<path d="M294 105H273V126H294V105Z" fill="#2E2E2E"/>
<path d="M336 105H315V126H336V105Z" fill="#2E2E2E"/>
<path d="M147 105H126V126H147V105Z" fill="#2E2E2E"/>
<path d="M42 63H21V84H42V63Z" fill="#2E2E2E"/>
<path d="M231 63H210V84H231V63Z" fill="#2E2E2E"/>
<path d="M168 63H147V84H168V63Z" fill="#2E2E2E"/>
<path d="M126 63H105V84H126V63Z" fill="#5C5C5C"/>
<path d="M273 63H252V84H273V63Z" fill="#5C5C5C"/>
<path d="M105 105H84V126H105V105Z" fill="#5C5C5C"/>
<path d="M21 63H0V84H21V63Z" fill="#898989"/>
<path d="M357 63H336V84H357V63Z" fill="#898989"/>
<path d="M210 63H189V84H210V63Z" fill="#898989"/>
<path d="M84 21H63V42H84V21Z" fill="#5C5C5C"/>
<path d="M189 21H168V42H189V21Z" fill="#5C5C5C"/>
<path d="M315 21H294V42H315V21Z" fill="#5C5C5C"/>
<path d="M63 126H42V147H63V126Z" fill="#5C5C5C"/>
<path d="M252 126H231V147H252V126Z" fill="#5C5C5C"/>
<path d="M294 126H273V147H294V126Z" fill="#5C5C5C"/>
<path d="M336 126H315V147H336V126Z" fill="#5C5C5C"/>
<path d="M147 126H126V147H147V126Z" fill="#5C5C5C"/>
<path d="M126 84H105V105H126V84Z" fill="#898989"/>
<path d="M273 84H252V105H273V84Z" fill="#898989"/>
<path d="M21 84H0V105H21V84Z" fill="#B7B7B7"/>
<path d="M357 84H336V105H357V84Z" fill="#B7B7B7"/>
<path d="M210 84H189V105H210V84Z" fill="#B7B7B7"/>
<path d="M105 126H84V147H105V126Z" fill="#898989"/>
<path d="M42 84H21V105H42V84Z" fill="#5C5C5C"/>
<path d="M231 84H210V105H231V84Z" fill="#5C5C5C"/>
<path d="M168 84H147V105H168V84Z" fill="#5C5C5C"/>
<path d="M84 42H63V63H84V42Z" fill="#898989"/>
<path d="M189 42H168V63H189V42Z" fill="#898989"/>
<path d="M315 42H294V63H315V42Z" fill="#898989"/>
<path d="M21 105H0V126H21V105Z" fill="#CECECE"/>
<path d="M357 105H336V126H357V105Z" fill="#CECECE"/>
<path d="M210 105H189V126H210V105Z" fill="#CECECE"/>
<path d="M126 105H105V126H126V105Z" fill="#B7B7B7"/>
<path d="M273 105H252V126H273V105Z" fill="#B7B7B7"/>
<path d="M105 0H84V21H105V0Z" fill="#B7B7B7"/>
<path d="M63 0H42V21H63V0Z" fill="#898989"/>
<path d="M252 0H231V21H252V0Z" fill="#898989"/>
<path d="M294 0H273V21H294V0Z" fill="#898989"/>
<path d="M336 0H315V21H336V0Z" fill="#898989"/>
<path d="M147 0H126V21H147V0Z" fill="#898989"/>
<path d="M42 105H21V126H42V105Z" fill="#898989"/>
<path d="M231 105H210V126H231V105Z" fill="#898989"/>
<path d="M168 105H147V126H168V105Z" fill="#898989"/>
<path d="M21 126H0V147H21V126Z" fill="#D9D9D9"/>
<path d="M357 126H336V147H357V126Z" fill="#D9D9D9"/>
<path d="M210 126H189V147H210V126Z" fill="#D9D9D9"/>
<path d="M126 126H105V147H126V126Z" fill="#CECECE"/>
<path d="M273 126H252V147H273V126Z" fill="#CECECE"/>
<path d="M105 21H84V42H105V21Z" fill="#CECECE"/>
<path d="M84 63H63V84H84V63Z" fill="#B7B7B7"/>
<path d="M189 63H168V84H189V63Z" fill="#B7B7B7"/>
<path d="M315 63H294V84H315V63Z" fill="#B7B7B7"/>
<path d="M63 21H42V42H63V21Z" fill="#B7B7B7"/>
<path d="M252 21H231V42H252V21Z" fill="#B7B7B7"/>
<path d="M294 21H273V42H294V21Z" fill="#B7B7B7"/>
<path d="M336 21H315V42H336V21Z" fill="#B7B7B7"/>
<path d="M147 21H126V42H147V21Z" fill="#B7B7B7"/>
<path d="M42 126H21V147H42V126Z" fill="#B7B7B7"/>
<path d="M231 126H210V147H231V126Z" fill="#B7B7B7"/>
<path d="M168 126H147V147H168V126Z" fill="#B7B7B7"/>
<path d="M126 0H105V21H126V0Z" fill="#D9D9D9"/>
<path d="M273 0H252V21H273V0Z" fill="#D9D9D9"/>
<path d="M105 42H84V63H105V42Z" fill="#D9D9D9"/>
<path d="M84 84H63V105H84V84Z" fill="#CECECE"/>
<path d="M189 84H168V105H189V84Z" fill="#CECECE"/>
<path d="M315 84H294V105H315V84Z" fill="#CECECE"/>
<path d="M63 42H42V63H63V42Z" fill="#CECECE"/>
<path d="M252 42H231V63H252V42Z" fill="#CECECE"/>
<path d="M294 42H273V63H294V42Z" fill="#CECECE"/>
<path d="M336 42H315V63H336V42Z" fill="#CECECE"/>
<path d="M147 42H126V63H147V42Z" fill="#CECECE"/>
<path d="M42 0H21V21H42V0Z" fill="#CECECE"/>
<path d="M231 0H210V21H231V0Z" fill="#CECECE"/>
<path d="M168 0H147V21H168V0Z" fill="#CECECE"/>
<path d="M84 105H63V126H84V105Z" fill="#D9D9D9"/>
<path d="M189 105H168V126H189V105Z" fill="#D9D9D9"/>
<path d="M315 105H294V126H315V105Z" fill="#D9D9D9"/>
<path d="M63 63H42V84H63V63Z" fill="#D9D9D9"/>
<path d="M252 63H231V84H252V63Z" fill="#D9D9D9"/>
<path d="M294 63H273V84H294V63Z" fill="#D9D9D9"/>
<path d="M336 63H315V84H336V63Z" fill="#D9D9D9"/>
<path d="M147 63H126V84H147V63Z" fill="#D9D9D9"/>
<path d="M42 21H21V42H42V21Z" fill="#D9D9D9"/>
<path d="M231 21H210V42H231V21Z" fill="#D9D9D9"/>
<path d="M168 21H147V42H168V21Z" fill="#D9D9D9"/>
</svg>
